<?xml version="1.0" encoding="UTF-8"?>
<svg width="155px" height="217px" viewBox="0 0 155 217" version="1.1" xmlns="http://www.w3.org/2000/svg" xmlns:xlink="http://www.w3.org/1999/xlink">
    <!-- Generator: Sketch 40.3 (33839) - http://www.bohemiancoding.com/sketch -->
    <title>ambush</title>
    <desc>Created with Sketch.</desc>
    <defs></defs>
    <g id="Dead-Humanity-Cards" stroke="none" stroke-width="1" fill="none" fill-rule="evenodd">
        <g id="Artboard" transform="translate(-40.000000, -40.000000)">
            <g id="ambush" transform="translate(40.000000, 40.000000)">
                <rect id="Rectangle-3" fill="#4A4A4A" x="0" y="0" width="155" height="217" rx="3"></rect>
                <g id="orange" transform="translate(0.000000, 167.000000)" fill="#F4645F">
                    <rect id="Rectangle-2" x="0" y="0" width="155" height="19.1780822"></rect>
                    <rect id="Rectangle" x="0" y="0" width="155" height="50" rx="3"></rect>
                </g>
                <g id="category-text" transform="translate(29.000000, 182.000000)" fill="#FAFAFA" opacity="0.8">
                    <text id="SOLDIERS" font-family="LucidaGrande, Lucida Grande, Lato, san-serif" font-size="16" font-weight="normal">
                        <tspan x="24" y="17">SOLDIERS</tspan>
                    </text>
                    <path d="M16.734375,3.0625 C16.6171869,2.95833281 16.4837247,2.87695342 16.3339844,2.81835938 C16.184244,2.75976533 16.0312508,2.73046875 15.875,2.73046875 L15.8359375,2.73046875 L15.796875,2.73046875 C15.7838541,2.73046875 15.7317713,2.73372393 15.640625,2.74023438 C15.5494787,2.74674482 15.425782,2.75 15.2695312,2.75 C15.0091133,2.75 14.6477888,2.73372412 14.1855469,2.70117188 C13.723305,2.66861963 13.2513045,2.59375059 12.7695312,2.4765625 C12.1445281,2.32031172 11.5227896,1.98177344 10.9042969,1.4609375 C10.2858042,0.940101563 9.87239687,0.614583984 9.6640625,0.484375 C9.55989531,0.406249609 9.44921934,0.350911621 9.33203125,0.318359375 C9.21484316,0.285807129 9.09765684,0.26953125 8.98046875,0.26953125 C8.85025977,0.26953125 8.72656309,0.285807129 8.609375,0.318359375 C8.49218691,0.350911621 8.38151094,0.406249609 8.27734375,0.484375 C8.25130195,0.497395898 7.92578437,0.787106543 7.30078125,1.35351562 C6.67577812,1.91992471 5.99219121,2.29426992 5.25,2.4765625 C4.76822676,2.59375059 4.29297109,2.66861963 3.82421875,2.70117188 C3.35546641,2.73372412 2.99088672,2.75 2.73046875,2.75 C2.57421797,2.75 2.45052129,2.74674482 2.359375,2.74023438 C2.26822871,2.73372393 2.2161459,2.73046875 2.203125,2.73046875 L2.1640625,2.73046875 L2.125,2.73046875 C1.96874922,2.73046875 1.81575596,2.75976533 1.66601562,2.81835938 C1.51627529,2.87695342 1.38281309,2.96484316 1.265625,3.08203125 C1.13541602,3.19921934 1.03776074,3.33593672 0.97265625,3.4921875 C0.907551758,3.64843828 0.875,3.81119707 0.875,3.98046875 L0.875,7.10546875 C0.875,9.9961082 1.26887627,12.3007727 2.05664062,14.0195312 C2.84440498,15.7382898 3.72004727,17.0533809 4.68359375,17.9648438 C5.64714023,18.8763066 6.54556875,19.475259 7.37890625,19.7617188 C8.21224375,20.0481785 8.66796836,20.1979166 8.74609375,20.2109375 C8.78515645,20.2239584 8.82421855,20.2304688 8.86328125,20.2304688 L8.98046875,20.2304688 L9.078125,20.2304688 C9.1171877,20.2304688 9.1562498,20.2239584 9.1953125,20.2109375 C9.27343789,20.1979166 9.73241768,20.0481785 10.5722656,19.7617188 C11.4121136,19.475259 12.3170524,18.8763066 13.2871094,17.9648438 C14.2571663,17.0533809 15.1393189,15.7382898 15.9335938,14.0195312 C16.7278686,12.3007727 17.125,9.9961082 17.125,7.10546875 L17.125,3.98046875 C17.125,3.81119707 17.0924482,3.64843828 17.0273438,3.4921875 C16.9622393,3.33593672 16.864584,3.19270898 16.734375,3.0625 L16.734375,3.0625 Z M15.875,7.10546875 C15.875,9.77475293 15.5169307,11.8938724 14.8007812,13.4628906 C14.0846318,15.0319089 13.2936241,16.2233032 12.4277344,17.0371094 C11.5618446,17.8509155 10.7708369,18.378254 10.0546875,18.6191406 C9.33853809,18.8600272 8.98046875,18.9804688 8.98046875,18.9804688 C8.98046875,18.9804688 8.62239941,18.8600272 7.90625,18.6191406 C7.19010059,18.378254 6.40234805,17.8509155 5.54296875,17.0371094 C4.68358945,16.2233032 3.89909209,15.0319089 3.18945312,13.4628906 C2.47981416,11.8938724 2.125,9.77475293 2.125,7.10546875 L2.125,4.52734375 L2.125,3.98046875 C2.125,3.98046875 2.18033799,3.98372393 2.29101562,3.99023438 C2.40169326,3.99674482 2.54817617,4 2.73046875,4 C3.06901211,4 3.49218496,3.98046895 4,3.94140625 C4.50781504,3.90234355 5.02864316,3.81770898 5.5625,3.6875 C6.4218793,3.47916563 7.20637666,3.0657583 7.91601562,2.44726562 C8.62565459,1.82877295 8.98046875,1.51953125 8.98046875,1.51953125 C8.98046875,1.51953125 9.34504844,1.82877295 10.0742188,2.44726562 C10.8033891,3.0657583 11.597652,3.47916563 12.4570312,3.6875 C12.9908881,3.81770898 13.508461,3.90234355 14.0097656,3.94140625 C14.5110702,3.98046895 14.9309879,4 15.2695312,4 C15.4518238,4 15.5983067,3.99674482 15.7089844,3.99023438 C15.819662,3.98372393 15.875,3.98046875 15.875,3.98046875 L15.875,4.52734375 L15.875,7.10546875 L15.875,7.10546875 Z M11.65625,7.0078125 C11.526041,6.89062441 11.3763029,6.83203125 11.2070312,6.83203125 C11.0377596,6.83203125 10.8880215,6.89062441 10.7578125,7.0078125 L9,8.78515625 L7.22265625,7.0078125 C7.10546816,6.89062441 6.95898525,6.83203125 6.78320312,6.83203125 C6.607421,6.83203125 6.46093809,6.89062441 6.34375,7.0078125 C6.22656191,7.13802148 6.16796875,7.28775957 6.16796875,7.45703125 C6.16796875,7.62630293 6.22656191,7.76953066 6.34375,7.88671875 L8.12109375,9.6640625 L6.34375,11.4414062 C6.22656191,11.5585943 6.16796875,11.7018221 6.16796875,11.8710938 C6.16796875,12.0403654 6.22656191,12.1901035 6.34375,12.3203125 C6.46093809,12.4375006 6.607421,12.4960938 6.78320312,12.4960938 C6.95898525,12.4960938 7.10546816,12.4375006 7.22265625,12.3203125 L9,10.5429688 L10.7578125,12.3203125 C10.8880215,12.4375006 11.0377596,12.4960938 11.2070312,12.4960938 C11.3763029,12.4960938 11.526041,12.4375006 11.65625,12.3203125 C11.7734381,12.1901035 11.8320312,12.0403654 11.8320312,11.8710938 C11.8320312,11.7018221 11.7734381,11.5585943 11.65625,11.4414062 L9.87890625,9.6640625 L11.65625,7.88671875 C11.7734381,7.76953066 11.8320312,7.62630293 11.8320312,7.45703125 C11.8320312,7.28775957 11.7734381,7.13802148 11.65625,7.0078125 L11.65625,7.0078125 Z" id="Shield---simple-line-icons"></path>
                </g>
                <text id="10%-of-your-enemy’s" font-family="LucidaGrande, Lucida Grande" font-size="16" font-weight="normal" fill="#9B9B9B">
                    <tspan x="18" y="76">3 of your </tspan>
                    <tspan x="18" y="94">enemy’s </tspan>
                    <tspan x="18" y="112">soldiers die</tspan>
                </text>
                <text id="AMBUSH" font-family="LucidaGrande, Lucida Grande" font-size="20" font-weight="normal" fill="#FAFAFA">
                    <tspan x="18" y="37">AMBUSH</tspan>
                </text>
            </g>
        </g>
    </g>
</svg>