<?xml version="1.0" encoding="UTF-8"?>
<svg width="155px" height="217px" viewBox="0 0 155 217" version="1.1" xmlns="http://www.w3.org/2000/svg" xmlns:xlink="http://www.w3.org/1999/xlink">
    <!-- Generator: Sketch 40.3 (33839) - http://www.bohemiancoding.com/sketch -->
    <title>growth</title>
    <desc>Created with Sketch.</desc>
    <defs></defs>
    <g id="Dead-Humanity-Cards" stroke="none" stroke-width="1" fill="none" fill-rule="evenodd">
        <g id="Artboard" transform="translate(-235.000000, -297.000000)">
            <g id="growth" transform="translate(235.000000, 297.000000)">
                <rect id="Rectangle-3" fill="#4A4A4A" x="0" y="0" width="155" height="217" rx="3"></rect>
                <g id="orange" transform="translate(0.000000, 167.000000)" fill="#F4645F">
                    <rect id="Rectangle-2" x="0" y="0" width="155" height="19.1780822"></rect>
                    <rect id="Rectangle" x="0" y="0" width="155" height="50" rx="3"></rect>
                </g>
                <g id="category-text" transform="translate(15.000000, 182.000000)" fill="#FAFAFA" opacity="0.8">
                    <text id="POPULATION" font-family="LucidaGrande, Lucida Grande, Lato, san-serif" font-size="16" font-weight="normal">
                        <tspan x="25" y="17">POPULATION</tspan>
                    </text>
                    <path d="M14.5703125,16.5585938 L10.6445312,14.390625 C11.3737016,13.8046846 11.8652331,13.0364631 12.1191406,12.0859375 C12.3730481,11.1354119 12.5,10.341149 12.5,9.703125 L12.5,7.06640625 C12.5,6.6236957 12.3665378,6.18424697 12.0996094,5.74804688 C11.832681,5.31184678 11.481122,4.91797051 11.0449219,4.56640625 C10.6087218,4.21484199 10.1106799,3.92838652 9.55078125,3.70703125 C8.99088262,3.48567598 8.41797168,3.375 7.83203125,3.375 C7.25911172,3.375 6.68945596,3.48567598 6.12304688,3.70703125 C5.55663779,3.92838652 5.05208555,4.21484199 4.609375,4.56640625 C4.16666445,4.91797051 3.80859512,5.31184678 3.53515625,5.74804688 C3.26171738,6.18424697 3.125,6.6236957 3.125,7.06640625 L3.125,9.703125 C3.125,10.2760445 3.26822773,11.0507764 3.5546875,12.0273438 C3.84114727,13.0039111 4.35546504,13.7851533 5.09765625,14.3710938 L1.0546875,16.5585938 C1.0546875,16.5585938 0.878908008,16.6627594 0.52734375,16.8710938 C0.175779492,17.0794281 0,17.3268215 0,17.6132812 L0,19.1953125 C0,19.4947932 0.104165625,19.7454417 0.3125,19.9472656 C0.520834375,20.1490896 0.768227734,20.25 1.0546875,20.25 L14.5703125,20.25 C14.8567723,20.25 15.1041656,20.1490896 15.3125,19.9472656 C15.5208344,19.7454417 15.625,19.4947932 15.625,19.1953125 L15.625,17.6132812 C15.625,17.3007797 15.4492205,17.046876 15.0976562,16.8515625 C14.746092,16.656249 14.5703125,16.5585938 14.5703125,16.5585938 L14.5703125,16.5585938 Z M14.375,19 L1.25,19 L1.25,17.8867188 C1.2890627,17.860677 1.33789033,17.8281252 1.39648438,17.7890625 C1.45507842,17.7499998 1.51041641,17.7239584 1.5625,17.7109375 C1.5755209,17.6979166 1.5885416,17.6881511 1.6015625,17.6816406 C1.6145834,17.6751302 1.6276041,17.671875 1.640625,17.671875 L5.68359375,15.4648438 C5.86588633,15.3736975 6.01562441,15.2402353 6.1328125,15.0644531 C6.25000059,14.888671 6.3151041,14.6966156 6.328125,14.4882812 C6.3541668,14.2799469 6.32487021,14.078126 6.24023438,13.8828125 C6.15559854,13.687499 6.03515703,13.5247402 5.87890625,13.3945312 C5.34504941,12.9778625 4.96093867,12.3821653 4.7265625,11.6074219 C4.49218633,10.8326784 4.375,10.1979191 4.375,9.703125 L4.375,7.06640625 C4.375,6.6106748 4.72981416,6.08984668 5.43945312,5.50390625 C6.14909209,4.91796582 6.94661016,4.625 7.83203125,4.625 C8.74349414,4.625 9.54101221,4.91796582 10.2246094,5.50390625 C10.9082065,6.08984668 11.25,6.6106748 11.25,7.06640625 L11.25,9.703125 C11.25,10.1979191 11.1523447,10.8326784 10.9570312,11.6074219 C10.7617178,12.3821653 10.3971381,12.9778625 9.86328125,13.3945312 C9.69400957,13.5247402 9.56705771,13.687499 9.48242188,13.8828125 C9.39778604,14.078126 9.36848945,14.2799469 9.39453125,14.4882812 C9.40755215,14.6966156 9.47265566,14.888671 9.58984375,15.0644531 C9.70703184,15.2402353 9.85676992,15.3802078 10.0390625,15.484375 L13.9648438,17.6523438 C13.9908855,17.6653646 14.0136718,17.6783854 14.0332031,17.6914062 C14.0527345,17.7044271 14.0690104,17.7109375 14.0820312,17.7109375 C14.1341148,17.7369793 14.1861977,17.7630207 14.2382812,17.7890625 C14.2903648,17.8151043 14.3359373,17.8476561 14.375,17.8867188 L14.375,19 L14.375,19 Z M18.9453125,13.453125 L14.9609375,11.265625 C15.6901078,10.6927055 16.1914049,9.92773916 16.4648438,8.97070312 C16.7382826,8.01366709 16.875,7.22265937 16.875,6.59765625 L16.875,3.9609375 C16.875,3.51822695 16.7382826,3.07552305 16.4648438,2.6328125 C16.1914049,2.19010195 15.8333355,1.79297051 15.390625,1.44140625 C14.9479145,1.08984199 14.4433622,0.800131348 13.8769531,0.572265625 C13.310544,0.344399902 12.7343779,0.23046875 12.1484375,0.23046875 C11.3932254,0.23046875 10.6575557,0.412758594 9.94140625,0.77734375 C9.22525684,1.14192891 8.6393252,1.59114316 8.18359375,2.125 C8.44401172,2.1380209 8.71093613,2.1510416 8.984375,2.1640625 C9.25781387,2.1770834 9.51822793,2.22265586 9.765625,2.30078125 C10.0911475,2.05338418 10.4589823,1.85807363 10.8691406,1.71484375 C11.2792989,1.57161387 11.705727,1.5 12.1484375,1.5 C13.0599004,1.5 13.867184,1.79296582 14.5703125,2.37890625 C15.273441,2.96484668 15.625,3.49218516 15.625,3.9609375 L15.625,6.59765625 C15.625,7.07942949 15.5175792,7.70767842 15.3027344,8.48242188 C15.0878896,9.25716533 14.7135443,9.85937285 14.1796875,10.2890625 C14.0104158,10.4192715 13.883464,10.5820303 13.7988281,10.7773438 C13.7141923,10.9726572 13.6848957,11.1744781 13.7109375,11.3828125 C13.7239584,11.5911469 13.7890619,11.7832022 13.90625,11.9589844 C14.0234381,12.1347665 14.1731762,12.2747391 14.3554688,12.3789062 L18.3398438,14.546875 C18.3658855,14.5598959 18.3886718,14.5696614 18.4082031,14.5761719 C18.4277345,14.5826823 18.4440104,14.5924479 18.4570312,14.6054688 C18.5091148,14.6184896 18.5611977,14.6412759 18.6132812,14.6738281 C18.6653648,14.7063804 18.7109373,14.735677 18.75,14.7617188 L18.75,15.875 L16.2304688,15.875 C16.4127613,16.0182299 16.5462235,16.1940094 16.6308594,16.4023438 C16.7154952,16.6106781 16.7968746,16.8515611 16.875,17.125 L18.9453125,17.125 C19.2317723,17.125 19.4791656,17.0240896 19.6875,16.8222656 C19.8958344,16.6204417 20,16.3697932 20,16.0703125 L20,14.5078125 C20,14.1953109 19.8242205,13.9414072 19.4726562,13.7460938 C19.121092,13.5507803 18.9453125,13.453125 18.9453125,13.453125 L18.9453125,13.453125 Z" id="î€"></path>
                </g>
                <text id="Your-population-incr" font-family="LucidaGrande, Lucida Grande" font-size="16" font-weight="normal" fill="#9B9B9B">
                    <tspan x="18" y="76">Your </tspan>
                    <tspan x="18" y="94">population</tspan>
                    <tspan x="18" y="112">increases by</tspan>
                    <tspan x="18" y="130">10%   </tspan>
                </text>
                <text id="GROWTH" font-family="LucidaGrande, Lucida Grande" font-size="20" font-weight="normal" fill="#FAFAFA">
                    <tspan x="18" y="37">GROWTH</tspan>
                </text>
            </g>
        </g>
    </g>
</svg>