<?xml version="1.0" encoding="UTF-8"?>
<svg width="175px" height="237px" viewBox="0 0 175 237" version="1.1" xmlns="http://www.w3.org/2000/svg" xmlns:xlink="http://www.w3.org/1999/xlink">
    <!-- Generator: Sketch 40.3 (33839) - http://www.bohemiancoding.com/sketch -->
    <title>peace</title>
    <desc>Created with Sketch.</desc>
    <defs>
        <filter x="-50%" y="-50%" width="200%" height="200%" filterUnits="objectBoundingBox" id="filter-1">
            <feOffset dx="0" dy="2" in="SourceAlpha" result="shadowOffsetOuter1"></feOffset>
            <feGaussianBlur stdDeviation="5" in="shadowOffsetOuter1" result="shadowBlurOuter1"></feGaussianBlur>
            <feColorMatrix values="0 0 0 0 0   0 0 0 0 0   0 0 0 0 0  0 0 0 0.2 0" type="matrix" in="shadowBlurOuter1" result="shadowMatrixOuter1"></feColorMatrix>
            <feMerge>
                <feMergeNode in="shadowMatrixOuter1"></feMergeNode>
                <feMergeNode in="SourceGraphic"></feMergeNode>
            </feMerge>
        </filter>
    </defs>
    <g id="Dead-Humanity-Cards" stroke="none" stroke-width="1" fill="none" fill-rule="evenodd">
        <g id="Artboard" transform="translate(-225.000000, -803.000000)">
            <g id="peace" filter="url(#filter-1)" transform="translate(235.000000, 811.000000)">
                <rect id="Rectangle-3" fill="#FFFFFF" x="0" y="0" width="155" height="217" rx="3"></rect>
                <g id="category-text" transform="translate(47.000000, 74.000000)" opacity="0.8">
                    <text id="PEACE" font-family="LucidaGrande, Lucida Grande, Lato, san-serif" font-size="20" font-weight="normal" fill="#4A4A4A">
                        <tspan x="0" y="65">PEACE</tspan>
                    </text>
                    <path d="M36.90625,3.58984375 C35.499993,3.58984375 34.2988331,3.41406426 33.3027344,3.0625 C32.3066356,2.71093574 31.3164112,2.32422086 30.3320312,1.90234375 C29.3476513,1.48046664 28.2695371,1.09375176 27.0976562,0.7421875 C25.9257754,0.390623242 24.4492277,0.21484375 22.6679688,0.21484375 C20.3710823,0.21484375 18.5605535,0.794916074 17.2363281,1.95507812 C15.9121028,3.11524018 15.25,3.6953125 15.25,3.6953125 L15.25,35.1601562 C15.25,35.4648453 15.361327,35.7285145 15.5839844,35.9511719 C15.8066417,36.1738292 16.070311,36.2851562 16.375,36.2851562 C16.679689,36.2851562 16.9433583,36.1738292 17.1660156,35.9511719 C17.388673,35.7285145 17.5,35.4648453 17.5,35.1601562 L17.5,20.8164062 C18.0859404,20.4179668 18.7890584,20.0722671 19.609375,19.7792969 C20.4296916,19.4863267 21.3554636,19.3398438 22.3867188,19.3398438 C24.1679777,19.3398438 25.673822,19.5156232 26.9042969,19.8671875 C28.1347718,20.2187518 29.2773385,20.6054666 30.3320312,21.0273438 C31.386724,21.4492209 32.441401,21.8359357 33.4960938,22.1875 C34.5507865,22.5390643 35.781243,22.7148438 37.1875,22.7148438 C38.593757,22.7148438 39.8828066,22.5390643 41.0546875,22.1875 C42.2265684,21.8359357 43.2343708,21.4492209 44.078125,21.0273438 C44.9218792,20.6054666 45.5781227,20.2187518 46.046875,19.8671875 C46.5156273,19.5156232 46.75,19.3398438 46.75,19.3398438 L46.75,0.21484375 C46.75,0.21484375 46.5039087,0.390623242 46.0117188,0.7421875 C45.5195288,1.09375176 44.8339888,1.48046664 43.9550781,1.90234375 C43.0761675,2.32422086 42.0332092,2.71093574 40.8261719,3.0625 C39.6191346,3.41406426 38.312507,3.58984375 36.90625,3.58984375 L36.90625,3.58984375 Z M44.5,18.2148438 C43.8671843,18.6132832 42.9062564,19.0878879 41.6171875,19.6386719 C40.3281186,20.1894559 38.8515708,20.4648438 37.1875,20.4648438 C36.085932,20.4648438 35.1132855,20.3359388 34.2695312,20.078125 C33.425777,19.8203112 32.5234423,19.4921895 31.5625,19.09375 C30.3906191,18.6249977 29.0898509,18.1738303 27.6601562,17.7402344 C26.2304616,17.3066385 24.4726667,17.0898438 22.3867188,17.0898438 C21.4257764,17.0898438 20.5351604,17.2011708 19.7148438,17.4238281 C18.8945271,17.6464855 18.1562533,17.9101547 17.5,18.2148438 L17.5,4.609375 C17.9218771,4.23437312 18.5781205,3.78320576 19.46875,3.25585938 C20.3593795,2.72851299 21.425775,2.46484375 22.6679688,2.46484375 C24.308602,2.46484375 25.662104,2.63476393 26.7285156,2.97460938 C27.7949272,3.31445482 28.8203076,3.69531039 29.8046875,4.1171875 C30.7890674,4.53906461 31.8320257,4.93163881 32.9335938,5.29492188 C34.0351618,5.65820494 35.3593673,5.83984375 36.90625,5.83984375 C38.4062575,5.83984375 39.8007748,5.66406426 41.0898438,5.3125 C42.3789127,4.96093574 43.5156201,4.56250223 44.5,4.1171875 L44.5,18.2148438 L44.5,18.2148438 Z" id="Flag---simple-line-icons" stroke="#4A4A4A"></path>
                </g>
            </g>
        </g>
    </g>
</svg>