<?xml version="1.0" encoding="UTF-8"?>
<svg width="155px" height="217px" viewBox="0 0 155 217" version="1.1" xmlns="http://www.w3.org/2000/svg" xmlns:xlink="http://www.w3.org/1999/xlink">
    <!-- Generator: Sketch 40.3 (33839) - http://www.bohemiancoding.com/sketch -->
    <title>rampage</title>
    <desc>Created with Sketch.</desc>
    <defs></defs>
    <g id="Dead-Humanity-Cards" stroke="none" stroke-width="1" fill="none" fill-rule="evenodd">
        <g id="Artboard" transform="translate(-40.000000, -554.000000)">
            <g id="rampage" transform="translate(40.000000, 554.000000)">
                <rect id="Rectangle-3" fill="#4A4A4A" x="0" y="0" width="155" height="217" rx="3"></rect>
                <g id="orange" transform="translate(0.000000, 167.000000)" fill="#F4645F">
                    <rect id="Rectangle-2" x="0" y="0" width="155" height="19.1780822"></rect>
                    <rect id="Rectangle" x="0" y="0" width="155" height="50" rx="3"></rect>
                </g>
                <g id="category-text" transform="translate(46.000000, 182.000000)" opacity="0.8">
                    <text id="FOOD" font-family="LucidaGrande, Lucida Grande, Lato, san-serif" font-size="16" font-weight="normal" fill="#FAFAFA">
                        <tspan x="21" y="17">FOOD</tspan>
                    </text>
                    <path d="M7.14286566,1.57140899 C7.14286566,1.18078352 6.81920456,0.857122421 6.42857909,0.857122421 C6.03795363,0.857122421 5.71429253,1.18078352 5.71429253,1.57140899 L5.71429253,6.21427166 C5.71429253,6.60489713 5.39063143,6.92855823 5.00000596,6.92855823 C4.60938049,6.92855823 4.28571939,6.60489713 4.28571939,6.21427166 L4.28571939,1.57140899 C4.28571939,1.18078352 3.96205829,0.857122421 3.57143283,0.857122421 C3.18080736,0.857122421 2.85714626,1.18078352 2.85714626,1.57140899 L2.85714626,6.21427166 C2.85714626,6.60489713 2.53348516,6.92855823 2.1428597,6.92855823 C1.75223423,6.92855823 1.42857313,6.60489713 1.42857313,6.21427166 L1.42857313,1.57140899 C1.42857313,1.18078352 1.10491203,0.857122421 0.714286566,0.857122421 C0.3236611,0.857122421 0,1.18078352 0,1.57140899 L0,8.71427464 C0,9.61829358 0.580357835,10.4330267 1.42857313,10.7343663 L1.42857313,19.4285731 C1.42857313,20.2098241 2.07589533,20.8571463 2.85714626,20.8571463 L4.28571939,20.8571463 C5.06697033,20.8571463 5.71429253,20.2098241 5.71429253,19.4285731 L5.71429253,10.7343663 C6.56250782,10.4330267 7.14286566,9.61829358 7.14286566,8.71427464 L7.14286566,1.57140899 Z M15.7143044,1.57140899 C15.7143044,1.18078352 15.3906433,0.857122421 15.0000179,0.857122421 L12.1428716,0.857122421 C10.1785836,0.857122421 8.57143879,2.46426719 8.57143879,4.42855525 L8.57143879,13.3571373 C8.57143879,13.5468697 8.7388497,13.7142806 8.92858207,13.7142806 L11.4285851,13.7142806 L11.4285851,19.4285731 C11.4285851,20.2098241 12.0759073,20.8571463 12.8571582,20.8571463 L14.2857313,20.8571463 C15.0669822,20.8571463 15.7143044,20.2098241 15.7143044,19.4285731 L15.7143044,1.57140899 Z" id="cutlery---FontAwesome" stroke="#FAFAFA"></path>
                </g>
                <text id="You-destroy-10%-of-y" font-family="LucidaGrande, Lucida Grande" font-size="16" font-weight="normal" fill="#9B9B9B">
                    <tspan x="18" y="76">You destroy </tspan>
                    <tspan x="18" y="94">20% of your </tspan>
                    <tspan x="18" y="112">ememy’s food    </tspan>
                </text>
                <text id="RAMPAGE" font-family="LucidaGrande, Lucida Grande" font-size="20" font-weight="normal" fill="#FAFAFA">
                    <tspan x="18" y="37">RAMPAGE</tspan>
                </text>
            </g>
        </g>
    </g>
</svg>