<?xml version="1.0" encoding="UTF-8"?>
<svg width="175px" height="237px" viewBox="0 0 175 237" version="1.1" xmlns="http://www.w3.org/2000/svg" xmlns:xlink="http://www.w3.org/1999/xlink">
    <!-- Generator: Sketch 40.3 (33839) - http://www.bohemiancoding.com/sketch -->
    <title>war</title>
    <desc>Created with Sketch.</desc>
    <defs>
        <filter x="-50%" y="-50%" width="200%" height="200%" filterUnits="objectBoundingBox" id="filter-1">
            <feOffset dx="0" dy="2" in="SourceAlpha" result="shadowOffsetOuter1"></feOffset>
            <feGaussianBlur stdDeviation="5" in="shadowOffsetOuter1" result="shadowBlurOuter1"></feGaussianBlur>
            <feColorMatrix values="0 0 0 0 0   0 0 0 0 0   0 0 0 0 0  0 0 0 0.2 0" type="matrix" in="shadowBlurOuter1" result="shadowMatrixOuter1"></feColorMatrix>
            <feMerge>
                <feMergeNode in="shadowMatrixOuter1"></feMergeNode>
                <feMergeNode in="SourceGraphic"></feMergeNode>
            </feMerge>
        </filter>
    </defs>
    <g id="Dead-Humanity-Cards" stroke="none" stroke-width="1" fill="none" fill-rule="evenodd">
        <g id="Artboard" transform="translate(-30.000000, -802.000000)">
            <g id="war" filter="url(#filter-1)" transform="translate(40.000000, 810.000000)">
                <rect id="Rectangle" fill="#F4645F" x="0" y="0" width="155" height="217" rx="3"></rect>
                <g id="orange"></g>
                <g id="category-text" transform="translate(55.000000, 74.000000)" opacity="0.8">
                    <text id="WAR" font-family="LucidaGrande, Lucida Grande, Lato, san-serif" font-size="20" font-weight="normal" fill="#FAFAFA">
                        <tspan x="0" y="65">WAR</tspan>
                    </text>
                    <path d="M22.859375,36.2148437 C20.7499895,36.2148437 18.8046964,35.8691441 17.0234375,35.1777344 C15.2421786,34.4863247 13.712897,33.5195375 12.4355469,32.2773437 C11.1581967,31.03515 10.1621129,29.5586023 9.44726562,27.8476562 C8.7324183,26.1367102 8.375,24.2734476 8.375,22.2578125 C8.375,21.1796821 8.50976428,20.1074272 8.77929688,19.0410156 C9.04882947,17.974604 9.34765461,17.0078168 9.67578125,16.140625 C10.0039079,15.2734332 10.3085923,14.5644559 10.5898438,14.0136719 C10.8710952,13.4628879 11.035156,13.1640627 11.0820312,13.1171875 C11.1757817,12.9062489 11.3281239,12.7539067 11.5390625,12.6601562 C11.7500011,12.5664058 11.9609364,12.5312499 12.171875,12.5546875 C12.4062512,12.5781251 12.6113272,12.6660149 12.7871094,12.8183594 C12.9628915,12.9707039 13.0742185,13.1523427 13.1210938,13.3632812 C13.1445314,13.3867189 13.3085922,13.8906201 13.6132812,14.875 C13.9179703,15.8593799 14.2929665,16.7148401 14.7382812,17.4414062 C15.0664079,17.9335962 15.3886703,18.355467 15.7050781,18.7070312 C16.021486,19.0585955 16.355467,19.3515613 16.7070312,19.5859375 C16.4726551,18.5546823 16.2968756,17.3007886 16.1796875,15.8242187 C16.0624994,14.3476489 16.1562485,12.812508 16.4609375,11.21875 C16.859377,9.0390516 17.5273391,7.2519601 18.4648438,5.85742187 C19.4023484,4.46288365 20.3632763,3.35547285 21.3476562,2.53515625 C22.3320362,1.71483965 23.2109336,1.14648596 23.984375,0.830078125 C24.7578164,0.513670293 25.1796871,0.343750117 25.25,0.3203125 C25.4375009,0.273437266 25.6249991,0.273437266 25.8125,0.3203125 C26.0000009,0.367187734 26.1757804,0.449218164 26.3398438,0.56640625 C26.4804695,0.707031953 26.5800778,0.871092812 26.6386719,1.05859375 C26.6972659,1.24609469 26.7031252,1.43359281 26.65625,1.62109375 C26.65625,1.62109375 26.6093755,1.97265273 26.515625,2.67578125 C26.4218745,3.37890977 26.3808593,4.28124449 26.3925781,5.3828125 C26.4042969,6.48438051 26.5156239,7.70311832 26.7265625,9.0390625 C26.9375011,10.3750067 27.3359346,11.6992122 27.921875,13.0117187 C28.0390631,13.2460949 28.1738274,13.4980455 28.3261719,13.7675781 C28.4785164,14.0371107 28.6367179,14.3124986 28.8007812,14.59375 C28.8476565,14.2187481 28.9062496,13.8320332 28.9765625,13.4335937 C29.0468754,13.0351543 29.1406244,12.6367207 29.2578125,12.2382812 C29.6796896,10.6913985 30.3183551,9.6132843 31.1738281,9.00390625 C32.0293012,8.3945282 32.4804685,8.07812512 32.5273438,8.0546875 C32.7148447,7.96093703 32.9082021,7.92578113 33.1074219,7.94921875 C33.3066416,7.97265637 33.4882804,8.0546868 33.6523438,8.1953125 C33.8164071,8.31250059 33.9394527,8.47070213 34.0214844,8.66992187 C34.103516,8.86914162 34.121094,9.0742177 34.0742188,9.28515625 C34.0742188,9.33203148 34.0917967,9.83007338 34.1269531,10.7792969 C34.1621096,11.7285204 34.6367142,12.9531175 35.5507812,14.453125 C36.3476602,15.7890692 36.8925767,17.0019477 37.1855469,18.0917969 C37.4785171,19.1816461 37.625,20.5703041 37.625,22.2578125 C37.625,24.2734476 37.2558631,26.1367102 36.5175781,27.8476562 C35.7792932,29.5586023 34.7539128,31.03515 33.4414062,32.2773437 C32.1288997,33.5195375 30.5761808,34.4863247 28.7832031,35.1777344 C26.9902254,35.8691441 25.0156358,36.2148437 22.859375,36.2148437 L22.859375,36.2148437 Z M11.890625,16.703125 C11.585936,17.4765664 11.2988295,18.3554638 11.0292969,19.3398437 C10.7597643,20.3242237 10.625,21.2851516 10.625,22.2226562 C10.625,23.9336023 10.9238251,25.5038991 11.5214844,26.9335937 C12.1191436,28.3632884 12.9628852,29.5996042 14.0527344,30.6425781 C15.1425836,31.6855521 16.4374925,32.4999971 17.9375,33.0859375 C19.4375075,33.6718779 21.0781161,33.9648437 22.859375,33.9648437 C24.6875091,33.9648437 26.3632736,33.6718779 27.8867188,33.0859375 C29.4101639,32.4999971 30.7285101,31.6855521 31.8417969,30.6425781 C32.9550837,29.5996042 33.8222625,28.3632884 34.4433594,26.9335937 C35.0644562,25.5038991 35.375,23.9336023 35.375,22.2226562 C35.375,20.769524 35.2578137,19.5976607 35.0234375,18.7070312 C34.7890613,17.8164018 34.320316,16.7851621 33.6171875,15.6132812 C33.1484352,14.8164023 32.7851575,14.0781284 32.5273438,13.3984375 C32.26953,12.7187466 32.0937505,12.0976591 32,11.5351562 C31.8828119,11.6992196 31.7714849,11.892577 31.6660156,12.1152344 C31.5605463,12.3378917 31.4726566,12.5898423 31.4023438,12.8710937 C31.0742171,14.0664122 30.9101562,15.2324162 30.9101562,16.3691406 L30.9101562,18.0742187 C30.9101562,18.3320325 30.8457038,18.5664052 30.7167969,18.7773437 C30.58789,18.9882823 30.3945325,19.1406245 30.1367188,19.234375 C29.9023426,19.3046879 29.6679699,19.3046879 29.4335938,19.234375 C29.1992176,19.1640621 29.0117195,19.0234386 28.8710938,18.8125 C28.8242185,18.7421871 28.425785,18.1503962 27.6757812,17.0371094 C26.9257775,15.9238226 26.3281272,14.8984422 25.8828125,13.9609375 C25.4374978,12.95312 25.0917981,11.9511769 24.8457031,10.9550781 C24.5996081,9.95897939 24.4238287,8.99219219 24.3183594,8.0546875 C24.2128901,7.11718281 24.1660156,6.23828535 24.1777344,5.41796875 C24.1894532,4.59765215 24.2187498,3.87109691 24.265625,3.23828125 C23.3515579,3.77734645 22.3027403,4.69725912 21.1191406,5.99804687 C19.935541,7.29883463 19.121096,9.1796752 18.6757812,11.640625 C18.4414051,12.8359435 18.3535153,14.0078068 18.4121094,15.15625 C18.4707034,16.3046932 18.5820304,17.3242143 18.7460938,18.2148437 C18.9101571,19.1054732 19.0800772,19.8320284 19.2558594,20.3945312 C19.4316415,20.9570341 19.5195312,21.2382812 19.5195312,21.2382812 C19.5898441,21.4257822 19.6074221,21.6249989 19.5722656,21.8359375 C19.5371092,22.0468761 19.4492195,22.2343742 19.3085938,22.3984375 C19.167968,22.5390632 18.9980479,22.6445309 18.7988281,22.7148437 C18.5996084,22.7851566 18.4062509,22.7968752 18.21875,22.75 C18.1484371,22.7265624 17.4921937,22.4394559 16.25,21.8886719 C15.0078063,21.3378879 13.8710989,20.2539143 12.8398438,18.6367187 C12.6757804,18.3554673 12.5117196,18.0449236 12.3476562,17.7050781 C12.1835929,17.3652327 12.0312507,17.0312516 11.890625,16.703125 L11.890625,16.703125 Z" id="Fire---simple-line-icons" stroke="#FAFAFA"></path>
                </g>
            </g>
        </g>
    </g>
</svg>